<svg width="319" height="190" viewBox="0 0 319 190" fill="none" xmlns="http://www.w3.org/2000/svg">
<rect width="319" height="190" fill="#D8F4E7"/>
<path d="M187.786 69H131.214C126.125 69 122 73.1389 122 78.2444V111.756C122 116.861 126.125 121 131.214 121H187.786C192.875 121 197 116.861 197 111.756V78.2444C197 73.1389 192.875 69 187.786 69Z" fill="#98E0C8"/>
<path fill-rule="evenodd" clip-rule="evenodd" d="M132.98 107.836L147.309 81.1065C147.439 80.7833 147.663 80.5027 147.953 80.298C148.244 80.0932 148.589 79.9728 148.948 79.951C149.307 79.9291 149.665 80.0067 149.98 80.1746C150.294 80.3425 150.553 80.5937 150.724 80.8986L167.014 110.435H134.792C134.473 110.431 134.159 110.352 133.878 110.205C133.597 110.059 133.357 109.849 133.179 109.593C133.001 109.338 132.89 109.044 132.855 108.738C132.82 108.432 132.863 108.122 132.98 107.836V107.836Z" stroke="white" stroke-width="4" stroke-miterlimit="10"/>
<path fill-rule="evenodd" clip-rule="evenodd" d="M170.372 88.0912L161.451 100.014L166.12 108.894C166.379 109.358 166.761 109.745 167.225 110.016C167.69 110.287 168.22 110.431 168.761 110.434H183.578C183.867 110.436 184.152 110.366 184.405 110.231C184.659 110.095 184.873 109.899 185.028 109.661C185.182 109.422 185.272 109.149 185.289 108.867C185.305 108.585 185.248 108.304 185.123 108.05L173.647 88.1814C173.499 87.8853 173.271 87.6344 172.987 87.4558C172.703 87.2773 172.375 87.178 172.037 87.1687C171.7 87.1594 171.366 87.2405 171.073 87.4031C170.779 87.5657 170.537 87.8037 170.372 88.0912V88.0912Z" stroke="white" stroke-width="4" stroke-miterlimit="10"/>
</svg>
